<?xml version="1.0" standalone="no"?><!DOCTYPE svg PUBLIC "-//W3C//DTD SVG 1.1//EN" "http://www.w3.org/Graphics/SVG/1.1/DTD/svg11.dtd"><svg t="1623239900863" class="icon" viewBox="0 0 1024 1024" version="1.1" xmlns="http://www.w3.org/2000/svg" p-id="6070" xmlns:xlink="http://www.w3.org/1999/xlink" width="200" height="200"><defs><style type="text/css"></style></defs><path d="M160 896m-32 0l0 0q-32 0-32-32l0-704q0-32 32-32l0 0q32 0 32 32l0 704q0 32-32 32Z" fill="#ffffff" p-id="6071"></path><path d="M896 364.8m0 32l0 0q0 32-32 32l-533.333333 0q-32 0-32-32l0 0q0-32 32-32l533.333333 0q32 0 32 32Z" fill="#ffffff" p-id="6072"></path><path d="M298.666667 659.2m0-32l0 0q0-32 32-32l533.333333 0q32 0 32 32l0 0q0 32-32 32l-533.333333 0q-32 0-32-32Z" fill="#ffffff" p-id="6073"></path><path d="M626.996658 202.147126m22.627417-22.627417l0 0q22.627417-22.627417 45.254834 0l194.294087 194.294088q22.627417 22.627417 0 45.254834l0 0q-22.627417 22.627417-45.254834 0l-194.294087-194.294088q-22.627417-22.627417 0-45.254834Z" fill="#ffffff" p-id="6074"></path><path d="M285.517651 627.096774m22.627417-22.627417l0 0q22.627417-22.627417 45.254834 0l194.294088 194.294087q22.627417 22.627417 0 45.254834l0 0q-22.627417 22.627417-45.254834 0l-194.294088-194.294087q-22.627417-22.627417 0-45.254834Z" fill="#ffffff" p-id="6075"></path></svg>