<?xml version="1.0" standalone="no"?><!DOCTYPE svg PUBLIC "-//W3C//DTD SVG 1.1//EN" "http://www.w3.org/Graphics/SVG/1.1/DTD/svg11.dtd"><svg t="1623320336196" class="icon" viewBox="0 0 1024 1024" version="1.1" xmlns="http://www.w3.org/2000/svg" p-id="5276" xmlns:xlink="http://www.w3.org/1999/xlink" width="200" height="200"><defs><style type="text/css"></style></defs><path d="M723.108554 0a31.66945 31.66945 0 0 1 31.669451 31.66945v63.3389H892.033401c46.617431 0 84.430754 37.813323 84.430754 84.494093V897.3222c0 43.893858-33.442939 79.997031-76.323374 84.05072l-8.10738 0.380034H131.966599A84.430754 84.430754 0 0 1 47.535845 897.3222V179.502443c0-46.680769 37.813323-84.494093 84.430754-84.494093h137.255396v-63.3389a31.66945 31.66945 0 0 1 25.96895-31.162739l5.700501-0.506711a31.66945 31.66945 0 0 1 31.162738 25.968949l0.506712 5.700501v63.3389h358.878208v-63.3389a31.66945 31.66945 0 0 1 25.968949-31.162739l5.700501-0.506711zM892.033401 369.519144H131.966599A21.091854 21.091854 0 0 0 110.874745 390.610998v506.711202c0 11.654358 9.437496 21.091854 21.091854 21.091853h760.066802c11.654358 0 21.091854-9.437496 21.091854-21.091853V390.610998A21.091854 21.091854 0 0 0 892.033401 369.519144zM405.46397 492.776644l3.927012 3.927012 222.319539 259.372796 105.332592-210.728521a31.66945 31.66945 0 0 1 58.71516 22.992021l-2.090184 5.320467-126.6778 253.355601a31.66945 31.66945 0 0 1-48.454259 10.324241l-3.927012-3.800334-222.319539-259.436135-105.332592 210.728521a31.66945 31.66945 0 0 1-58.71516-23.05536l2.090184-5.320468 126.6778-253.3556a31.66945 31.66945 0 0 1 48.454259-10.324241z m-136.241975-334.429393H131.966599a21.091854 21.091854 0 0 0-21.091854 21.155192l-0.063339 129.338035c6.713923-1.773489 13.80788-2.660234 21.155193-2.660234h760.066802c7.283974 0 14.37793 0.886745 21.155193 2.660234V179.502443A21.091854 21.091854 0 0 0 892.033401 158.347251h-137.255396v84.494092a31.66945 31.66945 0 0 1-25.96895 31.162739l-5.700501 0.506712a31.66945 31.66945 0 0 1-31.66945-31.669451V158.347251H332.560896v84.494092a31.66945 31.66945 0 0 1-25.968949 31.162739l-5.700501 0.506712a31.66945 31.66945 0 0 1-31.162739-25.96895l-0.506712-5.700501V158.347251z" p-id="5277" fill="#ffffff"></path></svg>