<?xml version="1.0" standalone="no"?><!DOCTYPE svg PUBLIC "-//W3C//DTD SVG 1.1//EN" "http://www.w3.org/Graphics/SVG/1.1/DTD/svg11.dtd"><svg t="1623239558284" class="icon" viewBox="0 0 1024 1024" version="1.1" xmlns="http://www.w3.org/2000/svg" p-id="4250" xmlns:xlink="http://www.w3.org/1999/xlink" width="200" height="200"><defs><style type="text/css"></style></defs><path d="M512 128.22c49.68 0 96.39 19.35 131.52 54.48C678.65 217.83 698 264.54 698 314.22s-19.35 96.39-54.48 131.52c-35.13 35.13-81.84 54.48-131.52 54.48s-96.39-19.35-131.52-54.48C345.35 410.61 326 363.91 326 314.22s19.35-96.39 54.48-131.52c35.13-35.13 81.84-54.48 131.52-54.48m0-64c-138.07 0-250 111.93-250 250s111.93 250 250 250 250-111.93 250-250-111.93-250-250-250z" p-id="4251" fill="#ffffff"></path><path d="M711.16 593.41l0.06-0.07c12.09-15.67 7.22-38.46-10.23-47.78-6.51-3.48-13.11-6.77-19.82-9.89-50.61-23.5-104.38-35.42-159.83-35.42-55.45 0-109.22 11.92-159.83 35.42-48.65 22.59-92.29 54.87-129.69 95.95-37.21 40.86-66.41 88.39-86.78 141.26-16.97 44.04-27.18 90.27-30.5 137.84-1.29 18.56 13.33 34.35 31.93 34.35 16.78 0 30.75-12.96 31.92-29.71 13.73-196.15 162.31-351.11 342.96-351.11 53.52 0 104.21 13.6 149.43 37.84 13.75 7.39 30.83 3.69 40.38-8.68z" p-id="4252" fill="#ffffff"></path><path d="M715.15 826.85a32.03 32.03 0 0 1-22.42-9.16L537.21 665.02c-12.61-12.38-12.8-32.64-0.42-45.25s32.64-12.8 45.25-0.42l131.78 129.36 192.86-212.37c11.88-13.08 32.12-14.06 45.2-2.18 13.08 11.88 14.06 32.12 2.18 45.2l-215.23 237a32 32 0 0 1-22.77 10.47c-0.3 0.02-0.61 0.02-0.91 0.02z" p-id="4253" fill="#ffffff"></path></svg>