<?xml version="1.0" standalone="no"?><!DOCTYPE svg PUBLIC "-//W3C//DTD SVG 1.1//EN" "http://www.w3.org/Graphics/SVG/1.1/DTD/svg11.dtd"><svg t="1595316565797" class="icon" viewBox="0 0 1024 1024" version="1.1" xmlns="http://www.w3.org/2000/svg" p-id="4849" xmlns:xlink="http://www.w3.org/1999/xlink" width="200" height="200"><defs><style type="text/css"></style></defs><path d="M512 1024c282.774588 0 512-229.225412 512-512S794.774588 0 512 0 0 229.225412 0 512s229.225412 512 512 512z m0-60.235294C262.505412 963.764706 60.235294 761.494588 60.235294 512 60.235294 262.505412 262.505412 60.235294 512 60.235294c249.494588 0 451.764706 202.270118 451.764706 451.764706 0 249.494588-202.270118 451.764706-451.764706 451.764706z" p-id="4850"></path><path d="M903.529412 512a30.117647 30.117647 0 0 1-60.235294 0c0-182.964706-148.329412-331.294118-331.294118-331.294118a30.117647 30.117647 0 0 1 0-60.235294c216.244706 0 391.529412 175.284706 391.529412 391.529412zM120.470588 512a30.117647 30.117647 0 0 1 60.235294 0c0 182.964706 148.329412 331.294118 331.294118 331.294118a30.117647 30.117647 0 0 1 0 60.235294C295.755294 903.529412 120.470588 728.244706 120.470588 512z" p-id="4851"></path><path d="M120.470588 481.882353m30.117647 0l722.82353 0q30.117647 0 30.117647 30.117647l0 0q0 30.117647-30.117647 30.117647l-722.82353 0q-30.117647 0-30.117647-30.117647l0 0q0-30.117647 30.117647-30.117647Z" p-id="4852"></path><path d="M512 512m-120.470588 0a120.470588 120.470588 0 1 0 240.941176 0 120.470588 120.470588 0 1 0-240.941176 0Z" p-id="4853"></path></svg>