<?xml version="1.0" standalone="no"?><!DOCTYPE svg PUBLIC "-//W3C//DTD SVG 1.1//EN" "http://www.w3.org/Graphics/SVG/1.1/DTD/svg11.dtd"><svg t="1623744725512" class="icon" viewBox="0 0 1024 1024" version="1.1" xmlns="http://www.w3.org/2000/svg" p-id="1972" xmlns:xlink="http://www.w3.org/1999/xlink" width="200" height="200"><defs><style type="text/css"></style></defs><path d="M298.666667 341.333333l213.333333 0 0 42.666667-213.333333 0 0-42.666667Z" fill="#ffffff" p-id="1973"></path><path d="M618.666667 320H768A64 64 0 0 1 832 384v426.666667h-42.666667V384a21.333333 21.333333 0 0 0-21.333333-21.333333h-149.333333V810.666667h-42.666667V256a21.333333 21.333333 0 0 0-21.333333-21.333333H256a21.333333 21.333333 0 0 0-21.333333 21.333333v554.666667h-42.666667V256A64 64 0 0 1 256 192h298.666667A64 64 0 0 1 618.666667 256v64z" fill="#ffffff" p-id="1974"></path><path d="M128 810.666667l768 0 0 42.666666-768 0 0-42.666666Z" fill="#ffffff" p-id="1975"></path></svg>