<?xml version="1.0" standalone="no"?><!DOCTYPE svg PUBLIC "-//W3C//DTD SVG 1.1//EN" "http://www.w3.org/Graphics/SVG/1.1/DTD/svg11.dtd"><svg t="1595313749774" class="icon" viewBox="0 0 1024 1024" version="1.1" xmlns="http://www.w3.org/2000/svg" p-id="10453" xmlns:xlink="http://www.w3.org/1999/xlink" width="200" height="200"><defs><style type="text/css"></style></defs><path d="M311.907912 913.521421v69.283177c0 30.495298 6.420063 40.9279 24.610241 40.927899h358.721003c18.190178 0 24.61024-10.700104 24.61024-40.927899v-107.001045H311.907912z" p-id="10454" fill="#ffffff"></path><path d="M798.227661 763.987461h-1.605015c0-52.163009 2.140021-394.833856-9.095089-514.407524-8.292581-88.275862-130.273772-187.251829-177.621735-203.569488v-3.477534a10.700104 10.700104 0 0 0-10.700104-10.700104h-32.635319A61.258098 61.258098 0 0 0 466.791925 20.865204C436.831632 21.400209 323.94553 23.005225 240.484715 17.655172 227.644589 17.120167 227.644589 17.655172 220.957024 24.61024a48.15047 48.15047 0 0 0-1.605016 39.85789 10.967607 10.967607 0 0 0 8.025079 3.210031s30.495298-11.770115 184.3093-10.700105c4.280042 0 9.095089 6.420063 0 11.23511a1387.53605 1387.53605 0 0 1-137.496343 59.118077 23.807732 23.807732 0 0 0-12.840126 13.375131 120.376176 120.376176 0 0 0-2.675026 25.145246 10.165099 10.165099 0 0 0 14.445141 8.560083 871.523511 871.523511 0 0 1 160.501568-80.250783 38.787879 38.787879 0 0 1 20.330198-1.605016v119.038662a155.68652 155.68652 0 0 0-142.311389 154.081505v473.747126h408.743991V365.676071a156.221526 156.221526 0 0 0-149.266457-154.61651V100.848485h28.355276a10.700104 10.700104 0 0 0 10.432602-9.630094c44.940439 31.565308 133.751306 102.185998 139.368861 176.016719 7.757576 87.740857 8.827586 443.519331 9.095089 496.752351a9.095089 9.095089 0 0 0-9.095089 9.095089v133.751306a9.095089 9.095089 0 0 0 9.095089 9.095089h40.9279a9.362591 9.362591 0 0 0 9.095089-9.095089v-133.751306a9.095089 9.095089 0 0 0-10.1651-9.095089z" p-id="10455" fill="#ffffff"></path></svg>