<?xml version="1.0" standalone="no"?><!DOCTYPE svg PUBLIC "-//W3C//DTD SVG 1.1//EN" "http://www.w3.org/Graphics/SVG/1.1/DTD/svg11.dtd"><svg t="1623239364713" class="icon" viewBox="0 0 1024 1024" version="1.1" xmlns="http://www.w3.org/2000/svg" p-id="3354" xmlns:xlink="http://www.w3.org/1999/xlink" width="200" height="200"><defs><style type="text/css"></style></defs><path d="M512 68c-203.8 0-339 155.2-339 359 0 265.9 339 529 339 529s339-263.1 339-529c0-203.8-135.2-359-339-359z m132.7 689.3C594.3 816.4 543.3 863.7 512 890.9c-31-26.9-81.3-73.6-131.5-132.2-46.7-54.5-83.7-108.2-110-159.7C239 537.5 223 479.6 223 427c0-44.4 7.1-86.4 21.2-124.8 13.6-37.1 33.3-69.8 58.6-97.2 25.3-27.5 55.6-48.8 89.9-63.6C428.9 125.9 469 118 512 118s83.1 7.9 119.2 23.4c34.4 14.7 64.6 36.1 89.9 63.6 25.3 27.4 45 60.1 58.6 97.2C793.9 340.6 801 382.6 801 427c0 52.4-15.8 110-47 171.2-26.2 51.2-63 104.8-109.3 159.1zM512 262c-66.3 0-120 53.7-120 120s53.7 120 120 120 120-53.7 120-120-53.7-120-120-120z m0 190c-38.6 0-70-31.4-70-70s31.4-70 70-70 70 31.4 70 70-31.4 70-70 70z" fill="#ffffff" p-id="3355"></path></svg>