<?xml version="1.0" standalone="no"?><!DOCTYPE svg PUBLIC "-//W3C//DTD SVG 1.1//EN" "http://www.w3.org/Graphics/SVG/1.1/DTD/svg11.dtd"><svg t="1595507108389" class="icon" viewBox="0 0 1024 1024" version="1.1" xmlns="http://www.w3.org/2000/svg" p-id="4559" xmlns:xlink="http://www.w3.org/1999/xlink" width="500" height="500"><defs><style type="text/css"></style></defs><path d="M800 512c13.2544 0 24 10.7456 24 24v344h80c13.2544 0 24 10.7456 24 24 0 13.2544-10.7456 24-24 24H120c-13.2544 0-24-10.7456-24-24 0-13.2544 10.7456-24 24-24h80v-152c0-13.2544 10.7456-24 24-24 13.2544 0 24 10.7456 24 24v152h144V600c0-13.2544 10.7456-24 24-24 13.2544 0 24 10.7456 24 24v280h144V664c0-13.2544 10.7456-24 24-24 13.2544 0 24 10.7456 24 24v216h144V536c0-13.2544 10.7456-24 24-24zM624 96h240c34.992 0 63.4256 28.0832 63.992 62.9424L928 160v240c0 13.2544-10.7456 24-24 24-13.088 0-23.728-10.4752-23.9952-23.4976L880 400V177.9392L621.2544 436.6864c-24.7424 24.744-64.7072 24.992-89.7552 0.7424l-0.7536-0.7424-135.432-135.432c-6.1344-6.1344-16.0112-6.2464-22.2832-0.3344l-0.344 0.336L144.9712 528.9696c-9.3728 9.3712-24.5696 9.3712-33.9424 0-9.2336-9.2352-9.3696-24.1232-0.4064-33.5248l0.4064-0.416L338.7456 267.312c24.7424-24.744 64.7072-24.992 89.7552-0.7424l0.7536 0.7424 135.432 135.432c6.1344 6.1344 16.0112 6.2464 22.2832 0.3344l0.344-0.336L846.0576 144H624c-13.088 0-23.728-10.4752-23.9952-23.4976L600 120c0-13.088 10.4752-23.728 23.4976-23.9952L624 96h240z" fill="#ffffff" p-id="4560"></path></svg>