<?xml version="1.0" standalone="no"?><!DOCTYPE svg PUBLIC "-//W3C//DTD SVG 1.1//EN" "http://www.w3.org/Graphics/SVG/1.1/DTD/svg11.dtd"><svg t="1595313730101" class="icon" viewBox="0 0 1024 1024" version="1.1" xmlns="http://www.w3.org/2000/svg" p-id="9968" xmlns:xlink="http://www.w3.org/1999/xlink" width="200" height="200"><defs><style type="text/css"></style></defs><path d="M442.2656 423.8848l-9.4208 9.5232M191.1296 677.9904l-7.3216 7.424M783.7696 488.2432l-9.4208 9.3696M578.7136 692.7872l-7.2704 7.3216M718.0288 828.3136l-3.7376-3.1744M259.8912 433.408l-9.0624-7.8336M849.6128 252.0576h-92.9792c-22.8352-59.2384-80.384-101.376-147.5584-101.376-67.1744 0-124.7232 42.1376-147.5584 101.376H135.0656a13.6704 13.6704 0 0 0-13.6704 13.6704v603.648c0 22.8352 18.5344 41.3696 41.3696 41.3696h659.2c22.8352 0 41.3696-18.5344 41.3696-41.3696V265.728a13.74208 13.74208 0 0 0-13.7216-13.6704z m-367.9232 27.3408a128.0512 128.0512 0 0 1 9.6256-27.3408c21.1968-43.776 65.9968-74.0352 117.76-74.0352s96.6144 30.2592 117.76 74.0352a128.0512 128.0512 0 0 1 9.6256 27.3408c2.2016 9.4208 3.328 19.3024 3.328 29.3888 0 22.272-5.6832 44.1856-16.3328 63.3344l-2.7136 4.7616c-0.0512 0.0512-0.1024 0.1024-0.1024 0.2048l-18.9952 32.8704-6.7584 11.7248-6.7584 11.7248-79.0016 136.8576-79.0528-136.8576-6.7584-11.7248-6.7584-11.7248-18.9952-32.9216c-0.0512-0.0512-0.0512-0.1024-0.1024-0.1536l-2.6624-4.608c-10.752-19.2512-16.4352-41.216-16.4352-63.488 0-10.0864 1.1776-19.9168 3.328-29.3888z m354.2528 590.0288c0 7.7312-6.2464 14.0288-14.0288 14.0288H162.7648c-7.7312 0-14.0288-6.2464-14.0288-14.0288V279.3984h304.9984a157.9008 157.9008 0 0 0 17.2032 106.3424l2.6624 4.608c0.0512 0.0512 0.1024 0.1536 0.1024 0.2048l17.9712 31.1296 105.5232 182.784c2.4576 4.2496 6.9632 6.8608 11.8784 6.8608s9.4208-2.6112 11.8272-6.8608l98.7648-171.0592h54.6304v47.7184l-204.4928 204.032-199.3728-171.9296 80.0256-80.9984c3.9424-1.8944 6.6048-5.888 6.6048-10.5472 0-6.5024-5.2224-11.7248-11.7248-11.7248H179.456a11.7248 11.7248 0 0 0-11.7248 11.7248v387.4816c0 21.76 17.664 39.424 39.3728 39.424h551.2704c21.76 0 39.3728-17.664 39.3728-39.424V421.6832c0-6.5024-5.2224-11.7248-11.7248-11.7248H733.184l11.2128-19.4048c0.0512-0.1024 0.1024-0.1536 0.1536-0.256l2.7136-4.7104a158.09536 158.09536 0 0 0 17.152-106.1888h71.5264v590.0288z m-499.8144-354.816l-144.9984 146.688V433.408h50.944l1.0752 1.0752 92.9792 80.128zM277.8624 433.408h138.5472l-63.744 64.512-74.8032-64.512z m-85.7088 260.2496l161.792-163.7376 96.9216 83.5584-58.3168 211.6096H207.104c-8.8064 0-15.9744-7.168-15.9744-15.9744v-114.5856c0.3584-0.256 0.7168-0.5632 1.024-0.8704z m278.3744-63.232l225.8432 194.6624H416.8704l53.6576-194.6624z m117.1456 70.0416l186.6752-186.2656v294.9632c0 8.8064-7.168 15.9744-15.9744 15.9744h-29.1328c-0.6144-2.1504-1.792-4.096-3.6352-5.6832l-137.9328-118.9888z" fill="#ffffff" p-id="9969"></path><path d="M662.5792 296.7552c0 36.3008-53.504 70.3488-53.504 70.3488s-53.504-34.048-53.504-70.3488c0-7.0144 1.9456-12.8 5.12-17.3568a26.5216 26.5216 0 0 1 21.76-11.3664c7.9872 0 15.9744 3.6352 21.3504 11.3664 2.1504 3.1232 3.84 6.8608 4.9664 11.3152h0.6656c1.1264-4.4544 2.8672-8.192 4.9664-11.3152 11.0592-15.9232 33.1264-14.4384 43.1104 0 3.1232 4.5568 5.0688 10.3936 5.0688 17.3568z" fill="#ffffff" p-id="9970"></path><path d="M711.0144 279.3984c-1.4848-4.7104-3.2768-9.2672-5.376-13.6704-2.2528-4.7616-4.864-9.3184-7.7824-13.6704-19.2-28.6208-51.8656-47.4624-88.7808-47.4624-36.9664 0-69.632 18.8928-88.832 47.4624-2.9184 4.352-5.5296 8.9088-7.7824 13.6704-2.0992 4.4032-3.8912 8.96-5.376 13.6704-3.1744 10.1376-4.9152 20.8896-4.9152 32.0512 0 44.2368 27.0336 82.2784 65.4336 98.5088 12.7488 5.376 26.7776 8.3456 41.472 8.3456s28.672-2.9696 41.472-8.3456c38.4-16.2304 65.4336-54.272 65.4336-98.5088 0-11.1616-1.7408-21.9136-4.9664-32.0512z m-101.9392 115.456c-45.9776 0-83.4048-37.4272-83.4048-83.4048 0-11.3664 2.2528-22.1696 6.4-32.0512 1.9968-4.8128 4.4544-9.3696 7.2704-13.6704 3.2256-4.9664 7.0144-9.5232 11.2128-13.6704 15.104-14.848 35.7888-24.064 58.5728-24.064s43.4688 9.1648 58.5728 24.064c4.1984 4.1472 7.936 8.7552 11.2128 13.6704 2.816 4.3008 5.2736 8.8576 7.2704 13.6704a83.456 83.456 0 0 1 6.4 32.0512c-0.0512 45.9776-37.4784 83.4048-83.5072 83.4048z" fill="#ffffff" p-id="9971"></path><path d="M401.4592 836.864l-0.0512 0.1536M463.6672 611.072l-2.9696 10.9056" fill="#ffffff" p-id="9972"></path><path d="M272.3328 311.4496H179.456c-6.4512 0-11.7248 5.2736-11.7248 11.7248v55.6544c0 6.4512 5.2736 11.7248 11.7248 11.7248h92.8768c6.4512 0 11.7248-5.2736 11.7248-11.7248V323.1744c0-6.4512-5.2736-11.7248-11.7248-11.7248zM260.608 367.104H191.1296v-32.2048H260.608v32.2048z" fill="#ffffff" p-id="9973"></path></svg>