<?xml version="1.0" standalone="no"?><!DOCTYPE svg PUBLIC "-//W3C//DTD SVG 1.1//EN" "http://www.w3.org/Graphics/SVG/1.1/DTD/svg11.dtd"><svg t="1595313689641" class="icon" viewBox="0 0 1109 1024" version="1.1" xmlns="http://www.w3.org/2000/svg" p-id="8879" xmlns:xlink="http://www.w3.org/1999/xlink" width="216.6015625" height="200"><defs><style type="text/css"></style></defs><path d="M1023.530667 126.037333A125.696 125.696 0 0 0 897.92 0.426667h-227.84a125.696 125.696 0 0 0-125.610667 125.610666v227.84a125.696 125.696 0 0 0 125.610667 125.610667h227.84a125.696 125.696 0 0 0 125.610667-125.653333V126.037333z m-544 539.733334a125.696 125.696 0 0 0-125.610667-125.610667h-227.84a125.696 125.696 0 0 0-125.568 125.610667v227.84a125.696 125.696 0 0 0 125.610667 125.568h227.797333a125.696 125.696 0 0 0 125.610667-125.610667v-227.84z m0-539.733334A125.696 125.696 0 0 0 353.92 0.426667h-227.84A126.037333 126.037333 0 0 0 0.554667 126.037333v227.84a125.696 125.696 0 0 0 125.610666 125.610667h227.797334a125.696 125.696 0 0 0 125.610666-125.653333V126.037333zM1089.92 626.474667c11.264 0 19.413333 8.106667 19.413333 18.090666v263.936a17.322667 17.322667 0 0 1-9.173333 15.36 24.234667 24.234667 0 0 1-19.413333 0.938667l-91.904-37.973333v67.797333c0 18.986667-17.365333 35.242667-39.808 35.242667h-354.56c-21.418667 0-39.808-15.36-39.808-35.242667v-356.181333c0-18.986667 17.365333-35.242667 39.808-35.242667h355.584c21.418667 0 39.808 15.36 39.808 35.242667v67.84l91.904-37.973334a21.248 21.248 0 0 1 8.149333-1.834666z m-224.426667 165.333333a17.066667 17.066667 0 0 0 0-30.549333l-115.456-57.728a17.066667 17.066667 0 0 0-24.704 15.274666v115.456a17.066667 17.066667 0 0 0 24.704 15.274667l115.413334-57.728z" p-id="8880" fill="#ffffff"></path></svg>