<?xml version="1.0" standalone="no"?><!DOCTYPE svg PUBLIC "-//W3C//DTD SVG 1.1//EN" "http://www.w3.org/Graphics/SVG/1.1/DTD/svg11.dtd"><svg t="1595407358471" class="icon" viewBox="0 0 1024 1024" version="1.1" xmlns="http://www.w3.org/2000/svg" p-id="4641" xmlns:xlink="http://www.w3.org/1999/xlink" width="500" height="500"><defs><style type="text/css"></style></defs><path d="M736 299.2H318.4c-46.4 0-84.8 38.4-84.8 84.8v526.4c0 46.4 38.4 84.8 84.8 84.8H736c46.4 0 84.8-38.4 84.8-84.8V384c0-46.4-38.4-84.8-84.8-84.8z m-209.6 59.2c28.8 0 51.2 24 51.2 51.2s-24 51.2-51.2 51.2-51.2-24-51.2-51.2 22.4-51.2 51.2-51.2z m-198.4 0c28.8 0 51.2 24 51.2 51.2s-24 51.2-51.2 51.2c-28.8 0-51.2-24-51.2-51.2s22.4-51.2 51.2-51.2z m198.4 544c-54.4 0-99.2-44.8-99.2-99.2s44.8-99.2 99.2-99.2 99.2 44.8 99.2 99.2-44.8 99.2-99.2 99.2z m244.8-328c0 17.6-14.4 30.4-30.4 30.4H313.6c-17.6 0-30.4-14.4-30.4-30.4v-36.8c0-17.6 14.4-30.4 30.4-30.4h427.2c17.6 0 30.4 14.4 30.4 30.4v36.8z m-44.8-112c-28.8 0-51.2-24-51.2-51.2s24-51.2 51.2-51.2 51.2 24 51.2 51.2-22.4 51.2-51.2 51.2z" p-id="4642" fill="#ffffff"></path><path d="M529.6 235.2m-40 0a40 40 0 1 0 80 0 40 40 0 1 0-80 0Z" p-id="4643" fill="#ffffff"></path><path d="M440 190.4s80-97.6 174.4 4.8c22.4 14.4 43.2 6.4 38.4-28.8 0 0-9.6-35.2-64-56 0 0-20.8-12.8-48-12.8h-51.2c-9.6 3.2-48 8-80 44.8s9.6 64 30.4 48z" p-id="4644" fill="#ffffff"></path><path d="M395.2 108.8s123.2-110.4 267.2 6.4c33.6 16 67.2 8 57.6-32 0 0-14.4-40-97.6-62.4 0 0-32-14.4-72-14.4h-76.8C459.2 9.6 400 16 352 56s11.2 70.4 43.2 52.8z" p-id="4645" fill="#ffffff"></path></svg>