<?xml version="1.0" standalone="no"?><!DOCTYPE svg PUBLIC "-//W3C//DTD SVG 1.1//EN" "http://www.w3.org/Graphics/SVG/1.1/DTD/svg11.dtd"><svg t="1628910175983" class="icon" viewBox="0 0 1024 1024" version="1.1" xmlns="http://www.w3.org/2000/svg" p-id="9249" xmlns:xlink="http://www.w3.org/1999/xlink" width="200" height="200"><defs><style type="text/css"></style></defs><path d="M401.0496 532.48c-11.3152 0-20.48 9.1648-20.48 20.48v302.08c0 11.3152 9.1648 20.48 20.48 20.48s20.48-9.1648 20.48-20.48v-302.08c0-11.3152-9.1648-20.48-20.48-20.48zM701.44 532.48c-11.3152 0-20.48 9.1648-20.48 20.48v302.08c0 11.3152 9.1648 20.48 20.48 20.48s20.48-9.1648 20.48-20.48v-302.08c0-11.3152-9.1648-20.48-20.48-20.48z" fill="#ffffff" p-id="9250"></path><path d="M706.56 343.04h-112.64c-11.3152 0-20.48 9.1648-20.48 20.48s9.1648 20.48 20.48 20.48h65.7408l-145.1008 145.1008-121.6-121.6c-4.5568-4.5568-10.7008-6.4-16.64-5.7856-5.9392-0.6144-12.0832 1.2288-16.64 5.7856l-133.9392 133.9392a20.52096 20.52096 0 0 0 0 28.9792 20.52096 20.52096 0 0 0 28.9792 0L376.32 448.8192l121.6 121.6c4.5568 4.5568 10.7008 6.4 16.64 5.7856 5.9392 0.6144 12.0832-1.2288 16.64-5.7856L686.08 415.5392V476.16c0 11.3152 9.1648 20.48 20.48 20.48s20.48-9.1648 20.48-20.48V363.52c0-11.3152-9.1648-20.48-20.48-20.48z" fill="#ffffff" p-id="9251"></path><path d="M551.2704 875.52c11.3152 0 20.48-9.1648 20.48-20.48v-204.8c0-11.3152-9.1648-20.48-20.48-20.48s-20.48 9.1648-20.48 20.48v204.8c0 11.3152 9.1648 20.48 20.48 20.48zM250.88 875.52c11.3152 0 20.48-9.1648 20.48-20.48v-189.44c0-11.3152-9.1648-20.48-20.48-20.48s-20.48 9.1648-20.48 20.48v189.44c0 11.3152 9.1648 20.48 20.48 20.48z" fill="#ffffff" p-id="9252"></path><path d="M916.48 890.88H133.12V194.56c0-11.3152-9.1648-20.48-20.48-20.48s-20.48 9.1648-20.48 20.48v716.8c0 11.3152 9.1648 20.48 20.48 20.48h803.84c11.3152 0 20.48-9.1648 20.48-20.48s-9.1648-20.48-20.48-20.48z" fill="#ffffff" p-id="9253"></path></svg>