<?xml version="1.0" standalone="no"?><!DOCTYPE svg PUBLIC "-//W3C//DTD SVG 1.1//EN" "http://www.w3.org/Graphics/SVG/1.1/DTD/svg11.dtd"><svg t="1628132598300" class="icon" viewBox="0 0 1024 1024" version="1.1" xmlns="http://www.w3.org/2000/svg" p-id="1649" xmlns:xlink="http://www.w3.org/1999/xlink" width="200" height="200"><defs><style type="text/css"></style></defs><path d="M865.83 328.187H545.556l21.133-26.23a34.055 34.055 0 0 0 4.407-7.141c13.433-30.053 25.274-91.855-15.716-132.846-46.246-46.167-127.854-32.84-169.003 22.115L286.08 305.329c-17.894 11.336-74.76 48.874-105.608 86.944l-105.394 6.292c-17.203 1.036-30.636 15.318-30.636 32.574v320.008c0 17.654 14.017 32.096 31.698 32.6l122.439 3.478 270.735 86.998c3.345 1.62 33.397 15.822 68.068 15.822h0.053c40.725 0 72.741-19.592 90.528-56.334a102.65 102.65 0 0 0 7.805-27.212c23.68-0.716 63.343-11.92 82.192-74.732 6.477-23.92 6.902-46.511 1.38-65.758 23.31-12.584 38.654-34.672 42.69-63.583 2.6-18.476 4.034-40.431-2.655-61.139H863.39c57.82 0 116.173-31.83 116.173-102.953-0.002-82.166-73.22-107.944-113.732-110.147z m-3.505 147.845H620.633c-17.999 0-32.6 14.601-32.6 32.627 0 18.025 14.601 32.627 32.6 32.627 54.902 0 69.821 10.327 73.697 14.76 4.832 5.549 5.84 17.787 3.132 37.326-1.009 7.169-2.708 19.194-28.777 19.194-3.982 0-6.903-0.344-7.38-0.424-17.257-2.974-34.406 8.707-37.645 26.362-3.132 17.628 8.496 34.512 26.07 37.857 2.867 0.531 3.982 1.514 4.99 3.16 3.186 5.043 5.15 17.282 0.532 34.3-8.283 27.476-18.69 27.476-22.088 27.476-7.434 0-15.451-3.796-17.575-5.07-12.265-7.7-27.875-6.133-38.76 3.372-10.884 9.478-14.017 25.38-8.017 38.521 0.265 0.558 6.212 13.91-0.053 28.194-6.371 13.141-15.451 18.504-31.327 18.504h-0.053c-19.858 0-39.344-9.186-43.697-10.939l-279.496-90.156c-2.974-0.956-6-1.487-9.132-1.567l-95.413-2.707V461.882l90.156-5.39c10.62-0.637 20.283-6.45 25.858-15.53 15.663-25.592 69.237-64.485 99.289-82.988 3.027-1.885 5.788-4.248 8.017-7.009l104.599-126.5c19.38-25.752 52.405-35.575 71.68-16.354 15.981 16.008 7.008 46.857 3.503 56.838l-60.795 75.397c-7.91 9.769-9.451 23.202-4.035 34.538a32.576 32.576 0 0 0 29.415 18.557l386.43-0.08c8.443 0.61 50.6 5.602 50.6 44.972 0 32.787-31.857 37.699-52.033 37.699z" p-id="1650" fill="#ffffff"></path></svg>