<?xml version="1.0" standalone="no"?><!DOCTYPE svg PUBLIC "-//W3C//DTD SVG 1.1//EN" "http://www.w3.org/Graphics/SVG/1.1/DTD/svg11.dtd"><svg t="1623467113469" class="icon" viewBox="0 0 1024 1024" version="1.1" xmlns="http://www.w3.org/2000/svg" p-id="3442" xmlns:xlink="http://www.w3.org/1999/xlink" width="200" height="200"><defs><style type="text/css"></style></defs><path d="M 483.738 526.95 c -6.3488 0 -12.4928 -2.4576 -17.408 -7.168 c -9.6256 -9.6256 -9.6256 -25.1904 0 -34.816 L 727.04 224.461 a 24.5965 24.5965 0 1 1 34.816 34.816 L 501.146 519.782 c -4.9152 4.9152 -11.264 7.168 -17.408 7.168 Z" p-id="3443" fill="#ffffff"></path><path d="M 326.042 866.509 h -1.8432 a 203.735 203.735 0 0 1 -145.613 -62.464 c -74.5472 -77.0048 -75.776 -203.366 -2.8672 -281.805 a 203.858 203.858 0 0 1 189.03 -61.44 c 9.4208 1.8432 18.8416 -0.8192 24.9856 -7.168 L 672.768 170.803 c 19.6608 -19.6608 47.5136 -30.72 74.752 -29.696 c 28.2624 0.8192 54.0672 12.6976 73.1136 33.792 c 36.2496 40.1408 33.1776 103.014 -6.7584 143.155 L 533.914 597.811 c -3.4816 3.4816 -5.9392 7.9872 -6.9632 12.9024 c -2.8672 13.312 -15.9744 21.504 -29.2864 18.6368 c -13.312 -2.8672 -21.7088 -15.9744 -18.6368 -29.2864 c 3.072 -14.1312 10.0352 -26.8288 20.2752 -37.0688 l 279.962 -279.962 c 21.0944 -21.0944 23.3472 -55.0912 4.9152 -75.3664 c -9.8304 -10.8544 -23.3472 -17.2032 -37.888 -17.408 c -14.7456 -0.4096 -28.2624 5.12 -38.7072 15.36 L 424.55 488.448 c -17.8176 17.8176 -43.6224 25.6 -69.2224 20.48 c -53.0432 -10.24 -106.906 7.168 -143.77 46.6944 c -55.5008 59.5968 -54.4768 155.648 2.048 214.221 a 154.747 154.747 0 0 0 110.592 47.5136 c 42.8032 -0.2048 81.7152 -15.7696 111.411 -45.6704 a 151.552 151.552 0 0 0 25.6 -33.792 c 6.7584 -11.8784 21.7088 -15.9744 33.3824 -9.4208 c 11.8784 6.5536 15.9744 21.7088 9.4208 33.3824 c -9.216 16.1792 -20.48 31.3344 -33.792 44.4416 c -38.0928 39.1168 -89.4976 60.2112 -144.179 60.2112 Z" p-id="3444" fill="#ffffff"></path><path d="M 324.403 781.312 a 119.644 119.644 0 0 1 -84.5824 -204.186 a 119.644 119.644 0 0 1 169.165 0 a 24.5965 24.5965 0 1 1 -34.816 34.816 a 70.4512 70.4512 0 0 0 -99.5328 0 c -27.4432 27.4432 -27.4432 72.0896 0 99.5328 s 72.0896 27.4432 99.5328 0 a 24.5965 24.5965 0 1 1 34.816 34.816 a 119.419 119.419 0 0 1 -84.5824 35.0208 Z M 852.992 432.947 c -6.3488 0 -12.4928 -2.4576 -17.408 -7.168 l -28.8768 -28.8768 a 24.5965 24.5965 0 1 1 34.816 -34.816 l 28.8768 28.8768 c 9.6256 9.6256 9.6256 25.1904 0 34.816 c -4.9152 4.7104 -11.0592 7.168 -17.408 7.168 Z M 802.202 483.533 c -6.3488 0 -12.4928 -2.4576 -17.408 -7.168 l -28.8768 -28.8768 a 24.5965 24.5965 0 1 1 34.816 -34.816 l 28.8768 28.8768 c 9.6256 9.6256 9.6256 25.1904 0 34.816 c -4.7104 4.9152 -11.0592 7.168 -17.408 7.168 Z M 730.317 512.819 c -6.3488 0 -12.4928 -2.4576 -17.408 -7.168 l -7.5776 -7.5776 a 24.5965 24.5965 0 1 1 34.816 -34.816 l 7.3728 7.7824 c 9.6256 9.6256 9.6256 25.1904 0 34.816 c -4.7104 4.7104 -11.0592 6.9632 -17.2032 6.9632 Z M 649.83 860.16 c -10.24 0 -20.6848 -2.6624 -29.9008 -7.9872 a 60.2112 60.2112 0 0 1 -29.9008 -55.0912 c 0.4096 -6.7584 -2.048 -16.5888 -4.3008 -20.0704 c -1.4336 -2.048 -2.6624 -4.3008 -3.8912 -6.3488 c -1.2288 -2.2528 -2.4576 -4.5056 -3.6864 -6.5536 c -1.8432 -3.4816 -9.216 -10.6496 -15.1552 -13.7216 c -20.2752 -10.4448 -32.768 -30.72 -32.768 -53.4528 c 0 -22.9376 13.5168 -44.2368 34.2016 -54.0672 c 6.3488 -3.072 11.4688 -7.9872 14.7456 -14.5408 c 1.8432 -3.6864 3.8912 -7.168 6.144 -10.8544 c 4.096 -6.3488 5.9392 -13.7216 5.5296 -21.2992 a 59.945 59.945 0 0 1 92.7744 -53.4528 c 6.3488 4.096 13.5168 6.144 21.0944 5.9392 c 4.096 -0.2048 8.3968 -0.2048 12.4928 0 c 7.3728 0.4096 14.336 -1.6384 20.0704 -5.5296 c 19.0464 -12.9024 44.032 -13.9264 63.8976 -2.4576 a 59.8016 59.8016 0 0 1 29.9008 55.0912 c -0.4096 6.7584 2.048 16.5888 4.3008 20.0704 c 1.4336 2.048 2.6624 4.3008 3.8912 6.3488 c 1.2288 2.2528 2.4576 4.3008 3.4816 6.5536 c 1.8432 3.6864 9.216 10.6496 15.1552 13.7216 c 20.2752 10.4448 32.768 30.72 32.768 53.4528 c 0 22.9376 -13.312 44.032 -34.2016 54.0672 c -6.3488 3.072 -11.4688 8.192 -14.9504 14.5408 c -2.048 3.8912 -4.096 7.5776 -6.5536 11.264 c -3.8912 6.144 -5.9392 13.5168 -5.5296 20.8896 c 1.024 22.528 -10.4448 43.6224 -29.9008 54.6816 c -19.456 11.264 -43.4176 10.6496 -62.2592 -1.4336 a 36.0448 36.0448 0 0 0 -20.8896 -5.5296 c -4.3008 0.2048 -8.6016 0.2048 -12.9024 0 c -7.3728 -0.4096 -14.336 1.6384 -20.0704 5.5296 c -9.8304 6.7584 -21.7088 10.24 -33.5872 10.24 Z m 1.024 -286.31 a 19.0464 19.0464 0 0 0 -9.4208 2.4576 c -6.144 3.6864 -9.8304 10.4448 -9.4208 17.6128 c 0.8192 16.1792 -3.2768 31.744 -11.8784 45.4656 c -1.6384 2.4576 -3.072 5.12 -4.5056 7.7824 c -7.5776 14.336 -19.0464 25.6 -33.3824 32.5632 c -6.7584 3.2768 -11.0592 10.0352 -11.0592 17.2032 s 4.096 13.7216 10.4448 16.9984 c 11.0592 5.7344 26.0096 18.0224 32.9728 31.5392 c 0.8192 1.6384 1.6384 3.2768 2.6624 4.7104 c 0.8192 1.4336 1.8432 3.072 2.8672 4.7104 c 8.192 12.6976 11.4688 31.9488 10.8544 44.2368 c -0.4096 7.168 3.2768 13.9264 9.4208 17.6128 c 6.3488 3.6864 14.336 3.2768 20.2752 -0.8192 c 13.1072 -9.0112 28.672 -13.312 44.8512 -12.6976 c 3.072 0.2048 6.3488 0.2048 9.4208 0 c 15.7696 -0.6144 31.3344 3.4816 44.6464 12.0832 c 6.144 3.8912 13.7216 4.096 19.8656 0.6144 s 9.8304 -10.24 9.4208 -17.408 c -0.6144 -15.9744 3.4816 -31.3344 11.8784 -44.6464 c 1.6384 -2.6624 3.2768 -5.3248 4.7104 -8.192 c 7.5776 -14.5408 19.0464 -25.8048 33.3824 -32.5632 c 6.5536 -3.2768 10.8544 -10.0352 10.8544 -17.2032 s -4.096 -13.7216 -10.4448 -16.9984 c -11.0592 -5.7344 -26.0096 -18.0224 -32.9728 -31.5392 c -0.8192 -1.4336 -1.6384 -3.072 -2.4576 -4.7104 c -1.024 -1.6384 -1.8432 -3.072 -2.8672 -4.7104 c -8.192 -12.6976 -11.4688 -31.9488 -10.8544 -44.2368 a 19.3126 19.3126 0 0 0 -9.4208 -17.6128 a 19.456 19.456 0 0 0 -20.48 0.8192 c -13.1072 9.0112 -28.672 13.312 -44.8512 12.6976 a 66.1504 66.1504 0 0 0 -9.0112 0 c -15.9744 0.8192 -31.744 -3.6864 -45.2608 -12.4928 a 16.5274 16.5274 0 0 0 -10.24 -3.2768 Z" p-id="3445" fill="#ffffff"></path><path d="M 710.656 760.627 c -22.3232 0 -44.032 -11.4688 -56.1152 -32.3584 a 64.7578 64.7578 0 0 1 23.552 -88.2688 c 30.9248 -17.8176 70.4512 -7.168 88.2688 23.552 a 64.7578 64.7578 0 0 1 -55.7056 97.0752 Z m -0.2048 -88.2688 c -4.096 0 -8.192 1.024 -11.6736 3.072 c -5.5296 3.072 -9.4208 8.192 -11.0592 14.336 s -0.8192 12.4928 2.4576 17.8176 s 8.192 9.4208 14.336 11.0592 c 6.144 1.6384 12.4928 0.8192 17.8176 -2.4576 c 5.5296 -3.072 9.4208 -8.192 11.0592 -14.336 c 1.6384 -6.144 0.8192 -12.4928 -2.4576 -17.8176 s -8.192 -9.4208 -14.336 -11.0592 c -2.048 -0.2048 -4.096 -0.6144 -6.144 -0.6144 Z" p-id="3446" fill="#ffffff"></path></svg>