<?xml version="1.0" standalone="no"?><!DOCTYPE svg PUBLIC "-//W3C//DTD SVG 1.1//EN" "http://www.w3.org/Graphics/SVG/1.1/DTD/svg11.dtd"><svg t="1628322493161" class="icon" viewBox="0 0 1024 1024" version="1.1" xmlns="http://www.w3.org/2000/svg" p-id="1375" xmlns:xlink="http://www.w3.org/1999/xlink" width="200" height="200"><defs><style type="text/css"></style></defs><path d="M922.666667 120.746667h-181.546667v-19.413334a37.333333 37.333333 0 0 0-74.666667 0v19.413334H363.733333v-19.413334a37.333333 37.333333 0 0 0-74.666666 0v19.413334h-187.733334A37.333333 37.333333 0 0 0 64 158.08v764.586667A37.333333 37.333333 0 0 0 101.333333 960h821.333334A37.333333 37.333333 0 0 0 960 922.666667V158.08a37.333333 37.333333 0 0 0-37.333333-37.333333zM885.333333 885.333333h-746.666666V195.413333h150.4v19.2a37.333333 37.333333 0 0 0 74.666666 0v-19.2h302.72v19.2a37.333333 37.333333 0 1 0 74.666667 0v-19.2h144.213333z" p-id="1376" fill="#ffffff"></path><path d="M325.333333 356.266667h-74.666666a37.333333 37.333333 0 0 0 0 74.666666h74.666666a37.333333 37.333333 0 1 0 0-74.666666zM325.333333 519.04h-74.666666a37.333333 37.333333 0 0 0 0 74.666667h74.666666a37.333333 37.333333 0 0 0 0-74.666667zM325.333333 679.68h-74.666666a37.333333 37.333333 0 0 0 0 74.666667h74.666666a37.333333 37.333333 0 0 0 0-74.666667zM499.626667 356.266667a37.333333 37.333333 0 0 0 0 74.666666h273.706666a37.333333 37.333333 0 0 0 0-74.666666zM773.333333 519.253333H499.626667a37.333333 37.333333 0 0 0 0 74.666667h273.706666a37.333333 37.333333 0 0 0 0-74.666667zM773.333333 679.68H499.626667a37.333333 37.333333 0 0 0 0 74.666667h273.706666a37.333333 37.333333 0 0 0 0-74.666667z" p-id="1377" fill="#ffffff"></path></svg>