<?xml version="1.0" standalone="no"?><!DOCTYPE svg PUBLIC "-//W3C//DTD SVG 1.1//EN" "http://www.w3.org/Graphics/SVG/1.1/DTD/svg11.dtd"><svg t="1623308338346" class="icon" viewBox="0 0 1024 1024" version="1.1" xmlns="http://www.w3.org/2000/svg" p-id="2070" xmlns:xlink="http://www.w3.org/1999/xlink" width="200" height="200"><defs><style type="text/css"></style></defs><path d="M672.403758 585.655534l-98.772584-14.382569-44.157709-89.506547c-3.291976-6.632047-10.05296-10.836813-17.446347-10.836813-7.394411 0-14.153348 4.201695-17.445324 10.836813l-44.185338 89.506547-98.772584 14.382569c-7.316639 1.063215-13.394055 6.203282-15.672958 13.242606-2.303462 7.037277-0.379647 14.760169 4.912893 19.926842l71.479985 69.63087-16.888645 98.392938c-1.24127 7.293103 1.746784 14.674211 7.746428 19.029402 5.950526 4.340865 13.926174 4.912893 20.458961 1.480724l88.366583-46.450938 88.343047 46.450938c2.834558 1.493004 5.947456 2.228761 9.03784 2.228761 4.027733 0 8.052396-1.255597 11.420097-3.709485 5.999644-4.355191 8.987698-11.724019 7.746428-19.029402l-16.888645-98.392938 71.479985-69.63087c5.29254-5.166673 7.217379-12.889565 4.912893-19.926842C685.795766 591.859839 679.720398 586.718749 672.403758 585.655534zM577.224002 667.744133c-4.583388 4.468778-6.683213 10.900258-5.596462 17.216103l11.952216 69.63087-62.515822-32.865525c-5.619998-2.962471-12.407588-2.962471-18.078751 0l-62.541405 32.865525 11.952216-69.63087c1.087774-6.315846-1.013073-12.747325-5.596462-17.216103l-50.590212-49.27424 69.908186-10.17678c6.331195-0.923022 11.79872-4.898567 14.634302-10.635221l31.272237-63.35084 31.244608 63.35084c2.835581 5.734608 8.30413 9.709129 14.636349 10.635221l69.908186 10.17678L577.224002 667.744133z" p-id="2071" fill="#ffffff"></path><path d="M833.338101 273.306666l0-144.552234c0-36.58729-29.751604-66.3655-66.338894-66.3655L257.000793 62.388932c-36.588313 0-66.338894 29.777187-66.338894 66.3655l0 144.553257c0 3.050476 1.086751 6.012947 3.038196 8.355295l102.019535 121.130801c-64.511269 58.810431-105.057731 143.482879-105.057731 237.453087 0 177.203888 144.145981 321.364195 321.338612 321.364195 177.190585 0 321.338612-144.160307 321.338612-321.364195 0-93.964068-40.538275-178.6314-105.042381-237.44183l102.005208-121.143081C832.249303 279.319613 833.338101 276.357142 833.338101 273.306666zM511.999488 318.90826c-45.724391 0-89.237417 9.620102-128.652102 26.90886L383.347386 88.317465l257.328763 0 0 257.510912C601.255325 328.531432 557.733089 318.90826 511.999488 318.90826zM216.588385 268.571828 216.588385 128.754432c0-22.293749 18.129916-40.436968 40.411385-40.436968l100.419084 0L357.418854 358.607424c-14.681374 8.088212-28.659737 17.292851-41.831734 27.496238L216.588385 268.571828zM807.409568 640.244826c0 162.91137-132.526339 295.435663-295.41008 295.435663-162.884764 0-295.411103-132.524293-295.411103-295.435663 0-113.053845 63.85226-211.462133 157.376307-261.105786 1.710968-0.490164 3.279696-1.314948 4.621251-2.411933 40.1003-20.384259 85.435835-31.891338 133.413546-31.891338C674.883229 344.835769 807.409568 477.361085 807.409568 640.244826zM807.409568 268.571828l-98.984409 117.545136c-13.187347-10.217712-27.187199-19.434631-41.888016-27.532053 0.044002-0.432859 0.065492-0.871857 0.065492-1.315972L666.602635 88.317465l100.393501 0c22.280446 0 40.410362 18.142196 40.410362 40.436968l0 139.817396L807.409568 268.571828z" p-id="2072" fill="#ffffff"></path></svg>