<?xml version="1.0" standalone="no"?><!DOCTYPE svg PUBLIC "-//W3C//DTD SVG 1.1//EN" "http://www.w3.org/Graphics/SVG/1.1/DTD/svg11.dtd"><svg t="1623823571706" class="icon" viewBox="0 0 1024 1024" version="1.1" xmlns="http://www.w3.org/2000/svg" p-id="2490" xmlns:xlink="http://www.w3.org/1999/xlink" width="200" height="200"><defs><style type="text/css"></style></defs><path d="M713.78703503 706.6949895A55.50420684 55.50420684 0 0 0 694.42510168 812.97048728a55.50420684 55.50420684 0 1 0 21.51325855-106.27549778z" p-id="2491" fill="#ffffff"></path><path d="M713.78703503 589.66286328a172.10606836 172.10606836 0 1 0 172.10606836 172.10606836 172.10606836 172.10606836 0 0 0-172.10606836-172.10606836z m121.33477744 192.32853113l-27.96723579 5.59344781a9.46583349 9.46583349 0 0 0-6.88424275 6.02371171 52.49235058 52.49235058 0 0 1-3.01185627 7.3145083 9.46583349 9.46583349 0 0 0 0 9.03556878l15.91981155 24.09484927a9.03556878 9.03556878 0 0 1 0 11.61715952l-15.48954602 15.05928131a8.60530325 8.60530325 0 0 1-11.61715951 0l-24.0948501-15.91981156a8.60530325 8.60530325 0 0 0-9.03556796 0l-7.31450831 3.01185627a8.17503855 8.17503855 0 0 0-6.02371251 6.88424277l-5.593447 27.96723577a9.03556878 9.03556878 0 0 1-9.03556878 7.31450831h-21.94352326a9.03556878 9.03556878 0 0 1-9.03556878-7.31450831l-5.593447-27.96723577a7.74477302 7.74477302 0 0 0-6.02371252-6.88424277l-7.3145083-3.01185627a8.60530325 8.60530325 0 0 0-9.03556879 0l-24.09484928 15.91981156a8.60530325 8.60530325 0 0 1-11.61715951 0l-15.05928131-15.05928131a8.60530325 8.60530325 0 0 1 0-11.61715952l15.91981155-24.09484927a9.46583349 9.46583349 0 0 0 0-9.03556878 55.93447238 55.93447238 0 0 1-3.44212097-7.3145083 7.74477302 7.74477302 0 0 0-6.88424277-6.0237117l-27.9672366-5.59344782a9.03556878 9.03556878 0 0 1-7.31450748-9.03556797v-21.94352407a9.03556878 9.03556878 0 0 1 7.31450748-9.03556879l27.9672366-5.59344698a8.17503855 8.17503855 0 0 0 6.88424277-6.02371253c0-2.58159072 2.15132602-5.16318228 3.01185627-7.31450748a8.60530325 8.60530325 0 0 0 0-9.03556878l-15.91981156-24.09484928a8.60530325 8.60530325 0 0 1 0-11.61716034l15.05928048-15.48954602a9.03556878 9.03556878 0 0 1 11.61715952 0l24.0948501 15.91981155a9.46583349 9.46583349 0 0 0 9.03556878 1e-8l7.31450749-3.01185627a8.60530325 8.60530325 0 0 0 6.02371252-6.88424277l5.59344699-27.96723577a9.46583349 9.46583349 0 0 1 9.03556879-7.74477302h21.94352407a9.46583349 9.46583349 0 0 1 9.03556797 7.74477302l5.59344781 27.96723577a10.75662927 10.75662927 0 0 0 6.0237117 6.88424277l7.3145083 3.01185627a9.46583349 9.46583349 0 0 0 9.03556879 0l24.09484927-15.91981156a9.03556878 9.03556878 0 0 1 11.61715952 0l15.48954602 15.48954602a9.03556878 9.03556878 0 0 1 0 11.61716034l-15.91981073 24.09484928a9.46583349 9.46583349 0 0 0 0 9.03556877s0 4.73291675 3.01185626 7.31450749a9.46583349 9.46583349 0 0 0 6.88424277 6.02371253l27.96723577 5.59344698a9.46583349 9.46583349 0 0 1 7.74477302 9.03556879v21.94352407a9.46583349 9.46583349 0 0 1-7.3145083 9.03556797z" p-id="2492" fill="#ffffff"></path><path d="M718.95021649 555.67191498a203.94569064 203.94569064 0 0 1 64.97004117 11.18689398V172.73591321a86.05303418 86.05303418 0 0 0-86.05303418-82.61091321H264.15993078a86.05303418 86.05303418 0 0 0-86.05303417 82.61091321v620.87264072a86.05303418 86.05303418 0 0 0 86.05303417 82.6109132h268.4854671a215.13258545 215.13258545 0 0 1 186.3048186-320.54755215z m-361.42274323-236.21557928a21.94352408 21.94352408 0 0 1 30.54882733 0L436.26599914 365.49470905l139.40591583-106.70576248A22.37378879 22.37378879 0 0 1 608.3720675 262.23106836a20.22246277 20.22246277 0 0 1-3.44212097 29.25803155L448.31342419 409.38175637a21.94352408 21.94352408 0 0 1-13.76848553 4.30265205 22.37378879 22.37378879 0 0 1-15.05928049-6.02371252L357.52747326 348.28410253a19.79219806 19.79219806 0 0 1 0-28.82776683zM264.15993078 482.9571008h433.27702716a21.08299301 21.08299301 0 1 1 0 43.02651709H264.15993078a21.08299301 21.08299301 0 1 1 0-43.02651709z m194.91012268 151.88360559H264.15993078a20.6527283 20.6527283 0 0 1-21.51325854-20.6527283 21.08299301 21.08299301 0 0 1 21.51325854-20.65272831h195.34038821a21.08299301 21.08299301 0 0 1 21.51325855 20.65272831 20.6527283 20.6527283 0 0 1-21.51325855 20.6527283z" p-id="2493" fill="#ffffff"></path></svg>