<?xml version="1.0" standalone="no"?><!DOCTYPE svg PUBLIC "-//W3C//DTD SVG 1.1//EN" "http://www.w3.org/Graphics/SVG/1.1/DTD/svg11.dtd"><svg t="1623239307665" class="icon" viewBox="0 0 1024 1024" version="1.1" xmlns="http://www.w3.org/2000/svg" p-id="2983" xmlns:xlink="http://www.w3.org/1999/xlink" width="200" height="200"><defs><style type="text/css"></style></defs><path d="M651.636364 593.92c173.335273 0 313.902545 143.127273 313.902545 199.773091-0.093091 57.390545-140.567273 199.773091-313.902545 199.773091-173.381818 0-313.902545-142.242909-313.902546-199.773091 0-56.645818 140.567273-199.819636 313.902546-199.819636zM465.454545 23.272727a256 256 0 0 1 215.365819 394.426182 350.114909 350.114909 0 0 1 182.597818 156.858182c-94.580364-45.381818-195.956364-58.461091-304.221091-39.284364-106.402909 18.850909-201.402182 72.936727-253.812364 143.266909-52.084364 69.818182-67.165091 161.047273 13.498182 246.272 16.197818 17.128727 14.615273 52.642909-13.498182 52.642909H139.636364A116.363636 116.363636 0 0 1 23.272727 861.090909V744.727273a349.230545 349.230545 0 0 1 226.816-327.074909A256 256 0 0 1 465.454545 23.272727z m186.181819 627.758546a142.661818 142.661818 0 1 0 0 285.323636 142.661818 142.661818 0 0 0 0-285.323636z m0 43.566545a99.048727 99.048727 0 1 1 0 198.144 99.048727 99.048727 0 0 1 0-198.144z" fill="#ffffff" p-id="2984"></path></svg>